<?xml version="1.0" encoding="UTF-8"?>
<svg width="60px" height="60px" viewBox="0 0 60 60" version="1.1" xmlns="http://www.w3.org/2000/svg" xmlns:xlink="http://www.w3.org/1999/xlink">
    <!-- Generator: Sketch 51.2 (57519) - http://www.bohemiancoding.com/sketch -->
    <title>Group 2</title>
    <desc>Created with Sketch.</desc>
    <defs>
        <linearGradient x1="50.7578127%" y1="18.6208003%" x2="50.7578127%" y2="83.8835694%" id="linearGradient-1">
            <stop stop-color="#ECECEC" stop-opacity="0" offset="0%"></stop>
            <stop stop-color="#FFFFFF" stop-opacity="0.12" offset="51.7928107%"></stop>
            <stop stop-color="#DFDFDF" stop-opacity="0" offset="100%"></stop>
        </linearGradient>
        <path d="M30,39 C25.0294373,39 21,34.9705627 21,30 C21,25.0294373 25.0294373,21 30,21 C34.9705627,21 39,25.0294373 39,30 C39,34.9705627 34.9705627,39 30,39 Z M30,33.6 C31.9882251,33.6 33.6,31.9882251 33.6,30 C33.6,28.0117749 31.9882251,26.4 30,26.4 C28.0117749,26.4 26.4,28.0117749 26.4,30 C26.4,31.9882251 28.0117749,33.6 30,33.6 Z" id="path-2"></path>
        <filter x="-5.6%" y="-5.6%" width="111.1%" height="111.1%" filterUnits="objectBoundingBox" id="filter-3">
            <feGaussianBlur stdDeviation="1" in="SourceAlpha" result="shadowBlurInner1"></feGaussianBlur>
            <feOffset dx="0" dy="0" in="shadowBlurInner1" result="shadowOffsetInner1"></feOffset>
            <feComposite in="shadowOffsetInner1" in2="SourceAlpha" operator="arithmetic" k2="-1" k3="1" result="shadowInnerInner1"></feComposite>
            <feColorMatrix values="0 0 0 0 1   0 0 0 0 1   0 0 0 0 1  0 0 0 0.5 0" type="matrix" in="shadowInnerInner1"></feColorMatrix>
        </filter>
        <circle id="path-4" cx="30" cy="30" r="8.4"></circle>
        <filter x="-6.0%" y="-6.0%" width="111.9%" height="111.9%" filterUnits="objectBoundingBox" id="filter-5">
            <feGaussianBlur stdDeviation="1" in="SourceAlpha" result="shadowBlurInner1"></feGaussianBlur>
            <feOffset dx="0" dy="0" in="shadowBlurInner1" result="shadowOffsetInner1"></feOffset>
            <feComposite in="shadowOffsetInner1" in2="SourceAlpha" operator="arithmetic" k2="-1" k3="1" result="shadowInnerInner1"></feComposite>
            <feColorMatrix values="0 0 0 0 1   0 0 0 0 1   0 0 0 0 1  0 0 0 0.24 0" type="matrix" in="shadowInnerInner1"></feColorMatrix>
        </filter>
        <circle id="path-6" cx="30" cy="30" r="4.8"></circle>
        <filter x="-10.4%" y="-10.4%" width="120.8%" height="120.8%" filterUnits="objectBoundingBox" id="filter-7">
            <feGaussianBlur stdDeviation="1" in="SourceAlpha" result="shadowBlurInner1"></feGaussianBlur>
            <feOffset dx="0" dy="0" in="shadowBlurInner1" result="shadowOffsetInner1"></feOffset>
            <feComposite in="shadowOffsetInner1" in2="SourceAlpha" operator="arithmetic" k2="-1" k3="1" result="shadowInnerInner1"></feComposite>
            <feColorMatrix values="0 0 0 0 1   0 0 0 0 1   0 0 0 0 1  0 0 0 0.5 0" type="matrix" in="shadowInnerInner1"></feColorMatrix>
        </filter>
    </defs>
    <g id="Page-1" stroke="none" stroke-width="1" fill="none" fill-rule="evenodd">
        <g id="Artboard-3" transform="translate(-1452.000000, -230.000000)" fill-rule="nonzero">
            <g id="Group-2" transform="translate(1452.000000, 230.000000)">
                <path d="M30,25 C27.2385762,25 25,27.2385762 25,30 C25,32.7614238 27.2385762,35 30,35 C32.7614238,35 35,32.7614238 35,30 C35,27.2385762 32.7614238,25 30,25 Z M30,60 C13.4314575,60 0,46.5685425 0,30 C0,13.4314575 13.4314575,0 30,0 C46.5685425,0 60,13.4314575 60,30 C60,46.5685425 46.5685425,60 30,60 Z M30,39 C34.9705627,39 39,34.9705627 39,30 C39,25.0294373 34.9705627,21 30,21 C25.0294373,21 21,25.0294373 21,30 C21,34.9705627 25.0294373,39 30,39 Z M30,39 C25.0294373,39 21,34.9705627 21,30 C21,25.0294373 25.0294373,21 30,21 C34.9705627,21 39,25.0294373 39,30 C39,34.9705627 34.9705627,39 30,39 Z" id="Combined-Shape" fill=""></path>
                <path d="M30,25 C27.2385762,25 25,27.2385762 25,30 C25,32.7614238 27.2385762,35 30,35 C32.7614238,35 35,32.7614238 35,30 C35,27.2385762 32.7614238,25 30,25 Z M30,60 C13.4314575,60 0,46.5685425 0,30 C0,13.4314575 13.4314575,0 30,0 C46.5685425,0 60,13.4314575 60,30 C60,46.5685425 46.5685425,60 30,60 Z M30,39 C34.9705627,39 39,34.9705627 39,30 C39,25.0294373 34.9705627,21 30,21 C25.0294373,21 21,25.0294373 21,30 C21,34.9705627 25.0294373,39 30,39 Z M30,39 C25.0294373,39 21,34.9705627 21,30 C21,25.0294373 25.0294373,21 30,21 C34.9705627,21 39,25.0294373 39,30 C39,34.9705627 34.9705627,39 30,39 Z" id="Combined-Shape" fill="url(#linearGradient-1)"></path>
                <g id="Combined-Shape">
                    <use fill-opacity="0.16" fill="#FFFFFF" xlink:href="#path-2"></use>
                    <use fill="black" fill-opacity="1" filter="url(#filter-3)" xlink:href="#path-2"></use>
                </g>
                <g id="Combined-Shape-Copy" fill="black" fill-opacity="1">
                    <use filter="url(#filter-5)" xlink:href="#path-4"></use>
                </g>
                <g id="Combined-Shape-Copy-2" fill="black" fill-opacity="1">
                    <use filter="url(#filter-7)" xlink:href="#path-6"></use>
                </g>
            </g>
        </g>
    </g>
</svg>