<?xml version="1.0" encoding="UTF-8"?>
<svg width="60px" height="60px" viewBox="0 0 60 60" version="1.1" xmlns="http://www.w3.org/2000/svg" xmlns:xlink="http://www.w3.org/1999/xlink">
    <!-- Generator: Sketch 51.2 (57519) - http://www.bohemiancoding.com/sketch -->
    <title>Group 6 Copy 2</title>
    <desc>Created with Sketch.</desc>
    <defs>
        <linearGradient x1="63.5190565%" y1="40.305395%" x2="36.0517215%" y2="40.305395%" id="linearGradient-1">
            <stop stop-color="#000000" offset="51.6889451%"></stop>
            <stop stop-color="#000000" offset="57.074151%"></stop>
        </linearGradient>
        <linearGradient x1="50.7578127%" y1="2.02768246%" x2="50.7578127%" y2="100.25%" id="linearGradient-2">
            <stop stop-color="#C6C6C6" offset="0%"></stop>
            <stop stop-color="#0D0D0D" offset="45.6294873%"></stop>
            <stop stop-color="#000000" offset="44.3460983%"></stop>
            <stop stop-color="#F5F5F5" offset="52.0103712%"></stop>
            <stop stop-color="#FFFFFF" offset="100%"></stop>
        </linearGradient>
        <linearGradient x1="50%" y1="0%" x2="50%" y2="100%" id="linearGradient-3">
            <stop stop-color="#FFFFFF" stop-opacity="0.16" offset="0%"></stop>
            <stop stop-color="#000000" stop-opacity="0.16" offset="49.654534%"></stop>
            <stop stop-color="#FFFFFF" stop-opacity="0.16" offset="100%"></stop>
        </linearGradient>
        <path d="M30,39 C25.0294373,39 21,34.9705627 21,30 C21,25.0294373 25.0294373,21 30,21 C34.9705627,21 39,25.0294373 39,30 C39,34.9705627 34.9705627,39 30,39 Z M30,33.6 C31.9882251,33.6 33.6,31.9882251 33.6,30 C33.6,28.0117749 31.9882251,26.4 30,26.4 C28.0117749,26.4 26.4,28.0117749 26.4,30 C26.4,31.9882251 28.0117749,33.6 30,33.6 Z" id="path-4"></path>
        <filter x="-5.6%" y="-5.6%" width="111.1%" height="111.1%" filterUnits="objectBoundingBox" id="filter-5">
            <feGaussianBlur stdDeviation="1" in="SourceAlpha" result="shadowBlurInner1"></feGaussianBlur>
            <feOffset dx="0" dy="0" in="shadowBlurInner1" result="shadowOffsetInner1"></feOffset>
            <feComposite in="shadowOffsetInner1" in2="SourceAlpha" operator="arithmetic" k2="-1" k3="1" result="shadowInnerInner1"></feComposite>
            <feColorMatrix values="0 0 0 0 1   0 0 0 0 1   0 0 0 0 1  0 0 0 0.5 0" type="matrix" in="shadowInnerInner1"></feColorMatrix>
        </filter>
        <circle id="path-6" cx="30" cy="30" r="8.4"></circle>
        <filter x="-6.0%" y="-6.0%" width="111.9%" height="111.9%" filterUnits="objectBoundingBox" id="filter-7">
            <feGaussianBlur stdDeviation="1" in="SourceAlpha" result="shadowBlurInner1"></feGaussianBlur>
            <feOffset dx="0" dy="0" in="shadowBlurInner1" result="shadowOffsetInner1"></feOffset>
            <feComposite in="shadowOffsetInner1" in2="SourceAlpha" operator="arithmetic" k2="-1" k3="1" result="shadowInnerInner1"></feComposite>
            <feColorMatrix values="0 0 0 0 1   0 0 0 0 1   0 0 0 0 1  0 0 0 0.5 0" type="matrix" in="shadowInnerInner1"></feColorMatrix>
        </filter>
        <circle id="path-8" cx="30" cy="30" r="4.8"></circle>
        <filter x="-10.4%" y="-10.4%" width="120.8%" height="120.8%" filterUnits="objectBoundingBox" id="filter-9">
            <feGaussianBlur stdDeviation="1" in="SourceAlpha" result="shadowBlurInner1"></feGaussianBlur>
            <feOffset dx="0" dy="0" in="shadowBlurInner1" result="shadowOffsetInner1"></feOffset>
            <feComposite in="shadowOffsetInner1" in2="SourceAlpha" operator="arithmetic" k2="-1" k3="1" result="shadowInnerInner1"></feComposite>
            <feColorMatrix values="0 0 0 0 1   0 0 0 0 1   0 0 0 0 1  0 0 0 0.5 0" type="matrix" in="shadowInnerInner1"></feColorMatrix>
        </filter>
    </defs>
    <g id="Page-1" stroke="none" stroke-width="1" fill="none" fill-rule="evenodd">
        <g id="Artboard-3" transform="translate(-1332.000000, -170.000000)">
            <g id="Group-6-Copy-2" transform="translate(1332.000000, 170.000000)">
                <g id="Group" fill-rule="nonzero">
                    <path d="M30,59.5 C46.2924001,59.5 59.5,46.2924001 59.5,30 C59.5,13.7075999 46.2924001,0.5 30,0.5 C13.7075999,0.5 0.5,13.7075999 0.5,30 C0.5,46.2924001 13.7075999,59.5 30,59.5 Z M30,39.5 C24.7532949,39.5 20.5,35.2467051 20.5,30 C20.5,24.7532949 24.7532949,20.5 30,20.5 C35.2467051,20.5 39.5,24.7532949 39.5,30 C39.5,35.2467051 35.2467051,39.5 30,39.5 Z" id="Combined-Shape" stroke="url(#linearGradient-2)" fill="url(#linearGradient-1)"></path>
                    <g id="Combined-Shape">
                        <use fill-opacity="0.72" fill="url(#linearGradient-3)" xlink:href="#path-4"></use>
                        <use fill="black" fill-opacity="1" filter="url(#filter-5)" xlink:href="#path-4"></use>
                    </g>
                    <g id="Combined-Shape-Copy" fill="black" fill-opacity="1">
                        <use filter="url(#filter-7)" xlink:href="#path-6"></use>
                    </g>
                    <g id="Combined-Shape-Copy-2" fill="black" fill-opacity="1">
                        <use filter="url(#filter-9)" xlink:href="#path-8"></use>
                    </g>
                </g>
                <path d="M48.888349,25.8 C46.6612541,25.8 46.4916469,28.1987039 48.888349,28.1987039 C51.2850511,28.1987039 50.832826,26.999352 48.888349,26.999352 C46.943872,26.999352 46.1212337,29.8258044 48.8372631,29.8258044 C51.5532925,29.8258044 51.0771478,28.9717632 48.8372631,28.9717632 C46.5973784,28.9717632 46.8207723,31.1509969 48.8372631,31.1509969 C50.8537539,31.1509969 50.6007191,30.4823953 48.8372631,30.4823953 C47.0738071,30.4823953 47.2229523,32.2607228 48.8372631,32.2607228 C50.4515739,32.2607228 50.5594974,31.6701914 48.9,31.6701914 C47.2405026,31.6701914 46.9295037,34.0193962 48.9,34.0193962" id="Path-5" stroke="#BDBDBD" stroke-width="0.4" stroke-linecap="round" stroke-linejoin="round" fill-rule="nonzero"></path>
                <path d="M8.6,32.5 L11.8,32.5 L11.8,29.1 C11.8,28.2163444 11.0836556,27.5 10.2,27.5 C9.3163444,27.5 8.6,28.2163444 8.6,29.1 L8.6,32.5 Z" id="Rectangle-7" stroke="#9F9F9F" stroke-width="0.4" fill-rule="nonzero"></path>
                <text id="2" font-family="MarsExtended-Regular, Mars Extended" font-size="8" font-style="expanded" font-weight="normal" fill="#BDBDBD">
                    <tspan x="27.05" y="14.85">2</tspan>
                </text>
                <g id="Group-3" transform="translate(16.900000, 46.400000)" fill="#BDBDBD" font-family="MarsExtended-Regular, Mars Extended" font-style="expanded" font-weight="normal">
                    <text id="There-are-many-varia" font-size="0.5" line-spacing="0.800000012">
                        <tspan x="7.1" y="1.19999999">There are many variations of passages of Lorem Ipsum </tspan>
                        <tspan x="7.1" y="2">available, but the majority have suffered alteration in some </tspan>
                        <tspan x="7.1" y="2.80000001">form, by injected humour, or randomised words which don't </tspan>
                        <tspan x="7.1" y="3.60000002">look even slightly believable.</tspan>
                    </text>
                    <g id="Group-7">
                        <text id="BMI" font-size="2">
                            <tspan x="1.191" y="2">BMI</tspan>
                        </text>
                        <text id="ASSORTED" font-size="0.5">
                            <tspan x="1.718" y="3">ASSORTED</tspan>
                        </text>
                    </g>
                </g>
            </g>
        </g>
    </g>
</svg>