<?xml version="1.0" encoding="UTF-8"?>
<svg width="116px" height="116px" viewBox="0 0 116 116" version="1.1" xmlns="http://www.w3.org/2000/svg" xmlns:xlink="http://www.w3.org/1999/xlink">
    <!-- Generator: Sketch 49.3 (51167) - http://www.bohemiancoding.com/sketch -->
    <title>Shape</title>
    <desc>Created with Sketch.</desc>
    <defs></defs>
    <g id="Page-1" stroke="none" stroke-width="1" fill="none" fill-rule="evenodd">
        <g id="01_home-copy-10" transform="translate(-302.000000, -617.000000)" fill="#000000" fill-rule="nonzero">
            <path d="M403.376,713.444 C412.464,703.202 418,689.738 418,675 C418,659.666 412.008,645.714 402.256,635.332 C402.256,635.332 402.256,635.33 402.256,635.33 C402.248,635.318 402.236,635.314 402.23,635.304 C392.072,624.506 377.84,617.594 362.01,617.052 L362.008,617.05 L360.878,617.02 C360.586,617.01 360.294,617 360,617 C359.706,617 359.414,617.01 359.122,617.02 L357.996,617.05 L357.994,617.052 C342.164,617.594 327.932,624.506 317.774,635.304 C317.766,635.314 317.754,635.318 317.748,635.33 C317.748,635.33 317.748,635.332 317.746,635.334 C307.992,645.714 302,659.666 302,675 C302,689.738 307.536,703.202 316.624,713.444 C316.636,713.462 316.636,713.482 316.65,713.5 C316.686,713.55 316.738,713.574 316.776,713.62 C326.988,725.036 341.64,732.39 357.992,732.95 L357.994,732.952 L359.12,732.982 C359.414,732.99 359.706,733 360,733 C360.294,733 360.586,732.99 360.878,732.98 L362.004,732.95 L362.006,732.948 C378.376,732.386 393.044,725.018 403.256,713.578 C403.282,713.544 403.324,713.534 403.348,713.498 C403.364,713.482 403.364,713.462 403.376,713.444 Z M306.05,677 L330.056,677 C330.282,685.478 331.938,693.716 334.886,701.434 C329.198,703.492 323.76,706.252 318.664,709.696 C311.17,700.782 306.506,689.42 306.05,677 Z M319.756,639.046 C324.732,642.282 330.03,644.874 335.556,646.81 C332.172,655.024 330.3,663.88 330.056,673 L306.05,673 C306.528,659.986 311.624,648.136 319.756,639.046 Z M413.95,673 L389.944,673 C389.7,663.88 387.828,655.024 384.444,646.81 C389.97,644.874 395.268,642.282 400.244,639.046 C408.376,648.136 413.472,659.986 413.95,673 Z M358,646.926 C352.218,646.762 346.542,645.9 341.058,644.36 C345.112,636.044 350.836,628.538 358,622.288 L358,646.926 Z M358,650.926 L358,673 L334.056,673 C334.302,664.304 336.126,655.87 339.388,648.05 C345.4,649.792 351.642,650.756 358,650.926 Z M362,650.926 C368.358,650.756 374.6,649.794 380.614,648.05 C383.876,655.87 385.7,664.304 385.946,673 L362,673 L362,650.926 Z M362,646.926 L362,622.288 C369.164,628.538 374.888,636.044 378.942,644.36 C373.458,645.9 367.782,646.762 362,646.926 Z M382.818,643.144 C378.976,635.094 373.644,627.76 367.042,621.474 C378.754,623.006 389.292,628.302 397.408,636.11 C392.8,639.034 387.912,641.386 382.818,643.144 Z M337.182,643.144 C332.088,641.386 327.2,639.034 322.594,636.11 C330.708,628.302 341.248,623.006 352.96,621.474 C346.356,627.76 341.024,635.094 337.182,643.144 Z M334.056,677 L358,677 L358,697.076 C351.386,697.252 344.906,698.284 338.678,700.158 C335.864,692.848 334.282,685.038 334.056,677 Z M358,701.076 L358,727.712 C350.332,721.022 344.32,712.894 340.232,703.878 C345.966,702.188 351.922,701.248 358,701.076 Z M362,727.712 L362,701.076 C368.078,701.246 374.034,702.188 379.768,703.876 C375.68,712.894 369.668,721.022 362,727.712 Z M362,697.076 L362,677 L385.944,677 C385.718,685.038 384.136,692.848 381.32,700.16 C375.094,698.284 368.614,697.252 362,697.076 Z M389.944,677 L413.95,677 C413.494,689.42 408.832,700.782 401.336,709.696 C396.24,706.252 390.802,703.492 385.114,701.434 C388.064,693.716 389.718,685.478 389.944,677 Z M321.382,712.692 C326.114,709.548 331.152,707.02 336.416,705.13 C340.306,713.85 345.89,721.796 352.958,728.526 C340.656,726.916 329.646,721.156 321.382,712.692 Z M367.042,728.526 C374.11,721.798 379.694,713.852 383.584,705.13 C388.848,707.02 393.884,709.548 398.618,712.692 C390.354,721.156 379.344,726.916 367.042,728.526 Z" id="Shape"></path>
        </g>
    </g>
</svg>