<?xml version="1.0" encoding="UTF-8"?>
<svg width="72px" height="60px" viewBox="0 0 72 60" version="1.1" xmlns="http://www.w3.org/2000/svg" xmlns:xlink="http://www.w3.org/1999/xlink">
    <!-- Generator: Sketch 51.2 (57519) - http://www.bohemiancoding.com/sketch -->
    <title>Icon_globe</title>
    <desc>Created with Sketch.</desc>
    <defs></defs>
    <g id="Page-1" stroke="none" stroke-width="1" fill="none" fill-rule="evenodd">
        <g id="Artboard-Copy-63" transform="translate(-654.000000, -336.000000)">
            <g id="Icon_globe" transform="translate(654.000000, 330.000000)">
                <rect id="Rectangle-Copy-3" x="0" y="0" width="72" height="72"></rect>
                <g transform="translate(0.000000, 6.000000)" fill="#000000" fill-rule="nonzero" id="Shape">
                    <path d="M62.9230345,49.8848276 C68.5638621,44.5872414 72,37.6231034 72,30 C72,22.0686207 68.2808276,14.852069 62.2278621,9.48206897 C62.2278621,9.48206897 62.2278621,9.48103448 62.2278621,9.48103448 C62.2228966,9.47482759 62.2154483,9.47275862 62.2117241,9.46758621 C55.9067586,3.88241379 47.0731034,0.307241379 37.2475862,0.0268965517 L37.2463448,0.025862069 L36.5449655,0.0103448276 C36.3637241,0.00517241379 36.1824828,0 36,0 C35.8175172,0 35.6362759,0.00517241379 35.4550345,0.0103448276 L34.7561379,0.025862069 L34.7548966,0.0268965517 C24.9293793,0.307241379 16.0957241,3.88241379 9.79075862,9.46758621 C9.7857931,9.47275862 9.77834483,9.47482759 9.77462069,9.48103448 C9.77462069,9.48103448 9.77462069,9.48206897 9.77337931,9.48310345 C3.71917241,14.852069 0,22.0686207 0,30 C0,37.6231034 3.43613793,44.5872414 9.07696552,49.8848276 C9.08441379,49.8941379 9.08441379,49.9044828 9.09310345,49.9137931 C9.11544828,49.9396552 9.14772414,49.952069 9.17131034,49.9758621 C15.5097931,55.8806897 24.6041379,59.6844828 34.7536552,59.9741379 L34.7548966,59.9751724 L35.4537931,59.9906897 C35.6362759,59.9948276 35.8175172,60 36,60 C36.1824828,60 36.3637241,59.9948276 36.5449655,59.9896552 L37.2438621,59.9741379 L37.2451034,59.9731034 C47.4057931,59.6824138 56.510069,55.8713793 62.8485517,49.9541379 C62.8646897,49.9365517 62.8907586,49.9313793 62.9056552,49.9127586 C62.9155862,49.9044828 62.9155862,49.8941379 62.9230345,49.8848276 Z M2.5137931,31.0344828 L17.414069,31.0344828 C17.5543448,35.4196552 18.5822069,39.6806897 20.412,43.6727586 C16.8815172,44.7372414 13.5062069,46.1648276 10.3431724,47.9462069 C5.69172414,43.3355172 2.79682759,37.4586207 2.5137931,31.0344828 Z M11.0209655,11.4031034 C14.1095172,13.0768966 17.397931,14.4175862 20.8278621,15.4189655 C18.7274483,19.6675862 17.5655172,24.2482759 17.414069,28.9655172 L2.5137931,28.9655172 C2.81048276,22.2341379 5.97351724,16.1048276 11.0209655,11.4031034 Z M69.4862069,28.9655172 L54.585931,28.9655172 C54.4344828,24.2482759 53.2725517,19.6675862 51.1721379,15.4189655 C54.602069,14.4175862 57.8904828,13.0768966 60.9790345,11.4031034 C66.0264828,16.1048276 69.1895172,22.2341379 69.4862069,28.9655172 Z M34.7586207,15.4789655 C31.1697931,15.3941379 27.6467586,14.9482759 24.2428966,14.1517241 C26.7591724,9.85034483 30.312,5.96793103 34.7586207,2.73517241 L34.7586207,15.4789655 Z M34.7586207,17.547931 L34.7586207,28.9655172 L19.8968276,28.9655172 C20.0495172,24.4675862 21.1816552,20.1051724 23.2063448,16.0603448 C26.937931,16.9613793 30.8122759,17.46 34.7586207,17.547931 Z M37.2413793,17.547931 C41.1877241,17.46 45.062069,16.9624138 48.7948966,16.0603448 C50.8195862,20.1051724 51.9517241,24.4675862 52.1044138,28.9655172 L37.2413793,28.9655172 L37.2413793,17.547931 Z M37.2413793,15.4789655 L37.2413793,2.73517241 C41.688,5.96793103 45.2408276,9.85034483 47.7571034,14.1517241 C44.3532414,14.9482759 40.8302069,15.3941379 37.2413793,15.4789655 Z M50.1628966,13.5227586 C47.7782069,9.35896552 44.4686897,5.56551724 40.3708966,2.31413793 C47.6404138,3.10655172 54.1812414,5.84586207 59.2187586,9.88448276 C56.3586207,11.3968966 53.3246897,12.6134483 50.1628966,13.5227586 Z M21.8371034,13.5227586 C18.6753103,12.6134483 15.6413793,11.3968966 12.7824828,9.88448276 C17.8187586,5.84586207 24.3608276,3.10655172 31.6303448,2.31413793 C27.5313103,5.56551724 24.2217931,9.35896552 21.8371034,13.5227586 Z M19.8968276,31.0344828 L34.7586207,31.0344828 L34.7586207,41.4186207 C30.6533793,41.5096552 26.6313103,42.0434483 22.7656552,43.0127586 C21.0190345,39.2317241 20.0371034,35.192069 19.8968276,31.0344828 Z M34.7586207,43.4875862 L34.7586207,57.2648276 C29.9991724,53.8044828 26.2675862,49.6003448 23.7302069,44.9368966 C27.2892414,44.0627586 30.986069,43.5765517 34.7586207,43.4875862 Z M37.2413793,57.2648276 L37.2413793,43.4875862 C41.013931,43.5755172 44.7107586,44.0627586 48.2697931,44.9358621 C45.7324138,49.6003448 42.0008276,53.8044828 37.2413793,57.2648276 Z M37.2413793,41.4186207 L37.2413793,31.0344828 L52.1031724,31.0344828 C51.9628966,35.192069 50.9809655,39.2317241 49.2331034,43.0137931 C45.3686897,42.0434483 41.3466207,41.5096552 37.2413793,41.4186207 Z M54.585931,31.0344828 L69.4862069,31.0344828 C69.2031724,37.4586207 66.3095172,43.3355172 61.6568276,47.9462069 C58.4937931,46.1648276 55.1184828,44.7372414 51.588,43.6727586 C53.4190345,39.6806897 54.4456552,35.4196552 54.585931,31.0344828 Z M12.0302069,49.4958621 C14.9673103,47.8696552 18.0943448,46.562069 21.3616552,45.5844828 C23.7761379,50.0948276 27.242069,54.2048276 31.6291034,57.6858621 C23.9933793,56.8531034 17.1595862,53.8737931 12.0302069,49.4958621 Z M40.3708966,57.6858621 C44.757931,54.2058621 48.2238621,50.0958621 50.6383448,45.5844828 C53.9056552,46.562069 57.0314483,47.8696552 59.9697931,49.4958621 C54.8404138,53.8737931 48.0066207,56.8531034 40.3708966,57.6858621 Z"></path>
                </g>
            </g>
        </g>
    </g>
</svg>