<?xml version="1.0" encoding="UTF-8"?>
<svg width="72px" height="72px" viewBox="0 0 72 72" version="1.1" xmlns="http://www.w3.org/2000/svg" xmlns:xlink="http://www.w3.org/1999/xlink">
    <!-- Generator: Sketch 51.2 (57519) - http://www.bohemiancoding.com/sketch -->
    <title>icon_paths</title>
    <desc>Created with Sketch.</desc>
    <defs></defs>
    <g id="Page-1" stroke="none" stroke-width="1" fill="none" fill-rule="evenodd">
        <g id="Artboard-Copy-63" transform="translate(-1038.000000, -66.000000)" fill="#000000" fill-rule="nonzero">
            <g id="icon_paths" transform="translate(1038.000000, 66.000000)">
                <path d="M70.9515738,23.7245902 L67.3663279,20.1393443 C66.7614098,19.5344262 65.9499344,19.195082 65.0941967,19.195082 C64.238459,19.195082 63.4269836,19.5344262 62.8220656,20.1393443 L62.3351803,20.6262295 C57.5991148,17.4688525 52.0958361,15.8016393 46.3269836,15.7868852 C46.3122295,15.7868852 46.2974754,15.7868852 46.2679672,15.7868852 C42.6827213,15.7868852 39.2155082,16.4213115 35.9548525,17.6606557 L42.2400984,11.3754098 C43.0368197,11.7590164 43.9073115,11.9508197 44.8073115,11.9508197 C46.4007541,11.9508197 47.9056721,11.3311475 49.0269836,10.195082 C50.1482951,9.07377049 50.7827213,7.56885246 50.7827213,5.97540984 C50.7827213,4.38196721 50.1630492,2.87704918 49.0269836,1.7557377 C47.890918,0.63442623 46.4007541,0 44.8073115,0 C43.2138689,0 41.7089508,0.619672131 40.5876393,1.7557377 C39.4663279,2.89180328 38.8319016,4.38196721 38.8319016,5.97540984 C38.8319016,6.87540984 39.038459,7.76065574 39.4073115,8.54262295 L28.090918,19.8590164 L27.7073115,19.4754098 C27.1023934,18.8704918 26.290918,18.5311475 25.4351803,18.5311475 C24.5794426,18.5311475 23.7679672,18.8704918 23.1630492,19.4754098 L19.533541,23.0901639 C18.928623,23.695082 18.5892787,24.5065574 18.5892787,25.3622951 C18.5892787,26.2180328 18.928623,27.0295082 19.533541,27.6344262 L19.9171475,28.0180328 L8.6007541,39.3344262 C7.80403279,38.9508197 6.93354098,38.7590164 6.03354098,38.7590164 C4.44009836,38.7590164 2.93518033,39.3786885 1.81386885,40.5147541 C-0.517278689,42.8459016 -0.517278689,46.6377049 1.81386885,48.9540984 C2.93518033,50.0754098 4.44009836,50.7098361 6.03354098,50.7098361 C7.62698361,50.7098361 9.13190164,50.0901639 10.2532131,48.9540984 C12.0827213,47.1245902 12.481082,44.3803279 11.4187869,42.1672131 L17.7040328,35.8819672 C16.4646885,39.157377 15.8155082,42.6540984 15.8302623,46.2540984 C15.8450164,52.0229508 17.5122295,57.5262295 20.6696066,62.2622951 L20.0646885,62.8672131 C18.8105902,64.1213115 18.8105902,66.1721311 20.0646885,67.4262295 L23.6646885,71.0262295 C24.2696066,71.6311475 25.081082,71.9704918 25.9368197,71.9704918 C26.7925574,71.9704918 27.6040328,71.6311475 28.2089508,71.0262295 L31.8089508,67.4262295 C33.0630492,66.1721311 33.0630492,64.1213115 31.8089508,62.8672131 L28.2089508,59.2672131 C27.6040328,58.6622951 26.7925574,58.3229508 25.9368197,58.3229508 C25.081082,58.3229508 24.2696066,58.6622951 23.6646885,59.2672131 L23.5614098,59.3704918 C18.3827213,50.9754098 18.6040328,40.1163934 24.2548525,31.942623 C24.6237049,32.0901639 25.0073115,32.1639344 25.4204262,32.1639344 C26.2761639,32.1639344 27.0876393,31.8245902 27.6925574,31.2196721 L31.2925574,27.6196721 C32.2220656,26.6901639 32.4581311,25.3327869 32.0155082,24.1819672 C40.1892787,18.5311475 51.0482951,18.295082 59.443377,23.4885246 L59.2220656,23.7098361 C57.9679672,24.9639344 57.9679672,27.0147541 59.2220656,28.2688525 L62.8220656,31.8688525 C63.4269836,32.4737705 64.238459,32.8131148 65.0941967,32.8131148 C65.9499344,32.8131148 66.7614098,32.4737705 67.3663279,31.8688525 L70.9663279,28.2688525 C72.2204262,27.0295082 72.2204262,24.9934426 70.9515738,23.7245902 Z M28.4450164,65.1688525 L25.9220656,67.6918033 L23.3991148,65.1688525 L25.9220656,62.6459016 L28.4450164,65.1688525 Z M43.3761639,4.58852459 C43.7450164,4.21967213 44.2466557,4.01311475 44.7778033,4.01311475 C45.3089508,4.01311475 45.8105902,4.21967213 46.1794426,4.58852459 C46.5482951,4.95737705 46.7548525,5.45901639 46.7548525,5.99016393 C46.7548525,6.52131148 46.5482951,7.02295082 46.1794426,7.39180328 C45.8105902,7.76065574 45.3089508,7.96721311 44.7778033,7.96721311 C44.2466557,7.96721311 43.7450164,7.76065574 43.3761639,7.39180328 C43.0073115,7.02295082 42.8007541,6.52131148 42.8007541,5.99016393 C42.8007541,5.45901639 43.0073115,4.97213115 43.3761639,4.58852459 Z M7.43518033,46.1508197 C7.06632787,46.5196721 6.56468852,46.7262295 6.03354098,46.7262295 C5.50239344,46.7262295 5.0007541,46.5196721 4.63190164,46.1508197 C3.84993443,45.3688525 3.84993443,44.1147541 4.63190164,43.347541 C5.0007541,42.9786885 5.50239344,42.7721311 6.03354098,42.7721311 C6.56468852,42.7721311 7.06632787,42.9786885 7.43518033,43.347541 C8.21714754,44.1147541 8.21714754,45.3836066 7.43518033,46.1508197 Z M25.4056721,27.8852459 L22.8827213,25.3622951 L25.4056721,22.8393443 L26.6597705,24.0934426 L27.9138689,25.347541 L25.4056721,27.8852459 Z M65.0794426,28.5196721 L62.5564918,25.9967213 L65.0794426,23.4737705 L67.6023934,25.9967213 L65.0794426,28.5196721 Z" id="Shape"></path>
            </g>
        </g>
    </g>
</svg>