<?xml version="1.0" encoding="UTF-8"?>
<svg width="72px" height="70px" viewBox="0 0 72 70" version="1.1" xmlns="http://www.w3.org/2000/svg" xmlns:xlink="http://www.w3.org/1999/xlink">
    <!-- Generator: Sketch 51.2 (57519) - http://www.bohemiancoding.com/sketch -->
    <title>icon_layers</title>
    <desc>Created with Sketch.</desc>
    <defs></defs>
    <g id="Page-1" stroke="none" stroke-width="1" fill="none" fill-rule="evenodd">
        <g id="Artboard-Copy-63" transform="translate(-1256.000000, -199.000000)" fill="#000000" fill-rule="nonzero">
            <g id="icon_layers" transform="translate(1256.000000, 198.000000)">
                <circle id="Oval" cx="58.9365818" cy="34.0049455" r="1.30909091"></circle>
                <circle id="Oval" cx="11.8093091" cy="34.0049455" r="1.30909091"></circle>
                <circle id="Oval" cx="15.7365818" cy="37.9322182" r="1.30909091"></circle>
                <circle id="Oval" cx="23.5911273" cy="37.9322182" r="1.30909091"></circle>
                <circle id="Oval" cx="19.6638545" cy="41.8594909" r="1.30909091"></circle>
                <circle id="Oval" cx="27.5184" cy="41.8594909" r="1.30909091"></circle>
                <circle id="Oval" cx="31.4456727" cy="45.7867636" r="1.30909091"></circle>
                <circle id="Oval" cx="39.3002182" cy="45.7867636" r="1.30909091"></circle>
                <circle id="Oval" cx="43.2274909" cy="41.8594909" r="1.30909091"></circle>
                <circle id="Oval" cx="35.3729455" cy="49.7140364" r="1.30909091"></circle>
                <circle id="Oval" cx="47.1547636" cy="37.9322182" r="1.30909091"></circle>
                <circle id="Oval" cx="55.0093091" cy="37.9322182" r="1.30909091"></circle>
                <circle id="Oval" cx="51.0820364" cy="41.8594909" r="1.30909091"></circle>
                <path d="M59.6408727,42.9329455 L71.9384727,35.9070545 L59.2978909,28.7293091 L71.9384727,21.5070545 L35.9698909,1.08130909 L0,21.5070545 L12.6405818,28.7293091 L0,35.9070545 L12.6405818,43.1293091 L0,50.3070545 L35.9698909,70.8571636 L71.9397818,50.3070545 L59.2992,43.1293091 L59.3921455,43.0756364 C59.4837818,43.0416 59.5597091,42.9866182 59.6408727,42.9329455 Z M35.9698909,4.09090909 L66.6497455,21.5136 L56.6522182,27.2264727 L35.9712,39.0423273 L5.29003636,21.5136 L35.9698909,4.09090909 Z M14.5688727,30.6445091 C14.7809455,31.0804364 15.2194909,31.3867636 15.7365818,31.3867636 C16.0900364,31.3867636 16.4068364,31.2440727 16.6424727,31.0162909 L19.6036364,32.7076364 C18.9098182,32.7403636 18.3547636,33.3032727 18.3547636,34.0049455 C18.3547636,34.7275636 18.9412364,35.3140364 19.6638545,35.3140364 C20.3864727,35.3140364 20.9729455,34.7275636 20.9729455,34.0049455 C20.9729455,33.7784727 20.9009455,33.5768727 20.8001455,33.3909818 L34.3230545,41.1172364 C34.1712,41.3306182 34.0638545,41.5780364 34.0638545,41.8594909 C34.0638545,42.5821091 34.6503273,43.1685818 35.3729455,43.1685818 C36.0955636,43.1685818 36.6820364,42.5821091 36.6820364,41.8594909 C36.6820364,41.7927273 36.6545455,41.7364364 36.6440727,41.6722909 L49.8030545,34.1541818 C49.8802909,34.8034909 50.4117818,35.3127273 51.0820364,35.3127273 C51.8046545,35.3127273 52.3911273,34.7262545 52.3911273,34.0036364 C52.3911273,33.5781818 52.1751273,33.2168727 51.8596364,32.9786182 L54.7422545,31.3317818 C54.8312727,31.3514182 54.9150545,31.3854545 55.0093091,31.3854545 C55.5905455,31.3854545 56.0657455,31.0005818 56.2372364,30.4769455 L56.6561455,30.2373818 L66.6497455,35.9122909 L64.0538182,37.3954909 C63.8482909,36.9412364 63.3953455,36.6218182 62.8651636,36.6218182 C62.1425455,36.6218182 61.5560727,37.2082909 61.5560727,37.9309091 C61.5560727,38.2136727 61.6647273,38.4610909 61.8165818,38.6744727 L56.6522182,41.6251636 L48.2897455,46.4033455 C48.3918545,46.2174545 48.4651636,46.0132364 48.4651636,45.7854545 C48.4651636,45.0628364 47.8786909,44.4763636 47.1560727,44.4763636 C46.4334545,44.4763636 45.8469818,45.0628364 45.8469818,45.7854545 C45.8469818,46.4884364 46.4046545,47.0513455 47.0997818,47.0827636 L44.1373091,48.7754182 C43.9016727,48.5476364 43.5835636,48.4036364 43.2288,48.4036364 C42.5061818,48.4036364 41.9197091,48.9901091 41.9197091,49.7127273 C41.9197091,49.8174545 41.9563636,49.9104 41.9799273,50.0085818 L35.9712,53.4410182 L28.7489455,49.3147636 C28.5787636,48.7898182 28.1022545,48.4036364 27.5197091,48.4036364 C27.4241455,48.4036364 27.3390545,48.4389818 27.2500364,48.4586182 L24.3687273,46.8130909 C24.6842182,46.5735273 24.9015273,46.2135273 24.9015273,45.7867636 C24.9015273,45.0641455 24.3150545,44.4776727 23.5924364,44.4776727 C22.9221818,44.4776727 22.3893818,44.9895273 22.3134545,45.6388364 L9.15185455,38.1207273 C9.16101818,38.0565818 9.18981818,37.9989818 9.18981818,37.9322182 C9.18981818,37.2096 8.60334545,36.6231273 7.88072727,36.6231273 C7.56785455,36.6231273 7.29294545,36.7474909 7.06778182,36.9307636 L5.28872727,35.9149091 L14.5688727,30.6445091 Z M66.6484364,50.3136 L35.9685818,67.8423273 L5.29003636,50.3136 L15.2823273,44.6386909 L35.9698909,56.4571636 L56.6561455,44.6386909 L66.6484364,50.3136 Z" id="Shape"></path>
            </g>
        </g>
    </g>
</svg>