<?xml version="1.0" encoding="UTF-8"?>
<svg width="455px" height="165px" viewBox="0 0 455 165" version="1.1" xmlns="http://www.w3.org/2000/svg" xmlns:xlink="http://www.w3.org/1999/xlink">
    <!-- Generator: Sketch 49 (51002) - http://www.bohemiancoding.com/sketch -->
    <title>S . H</title>
    <desc>Created with Sketch.</desc>
    <defs></defs>
    <g id="Page-1" stroke="none" stroke-width="1" fill="none" fill-rule="evenodd">
        <g id="01_home" transform="translate(-136.000000, -141.000000)" fill="#FFFFFF" fill-rule="nonzero">
            <path d="M258.809342,174.364354 C257.240768,169.522235 254.573463,164.974137 250.791851,160.711229 C247.024823,156.464762 241.994165,152.88128 235.681884,149.967919 C229.415934,147.075942 221.525296,145.616 212.004,145.616 C204.891253,145.616 198.21239,146.76393 191.956509,149.057753 C185.704986,151.349978 180.268349,154.535778 175.633761,158.616983 C171.012828,162.686162 167.397983,167.471529 164.778555,172.986114 C162.17193,178.473745 160.868,184.444372 160.868,190.92 C160.868,200.286476 163.253821,207.989268 168.006704,214.100119 C172.835669,220.308788 179.702734,225.441746 188.631877,229.487774 L207.852732,238.126363 C213.661387,240.724972 217.752758,243.881173 220.078072,247.649785 C222.357851,251.344599 223.508,255.270971 223.508,259.392 C223.508,266.175661 220.90578,271.780443 215.766039,276.050381 C210.696044,280.262377 203.872945,282.344 195.372,282.344 C189.486505,282.344 184.419336,281.391525 180.180394,279.464733 C175.968742,277.550346 172.461329,275.006508 169.67712,271.835602 C166.898904,268.671523 164.887565,265.074321 163.652442,261.060172 C162.441916,257.125961 161.836,253.11177 161.836,249.024 L161.836,246.899578 L140.925504,250.504836 C140.910337,250.673877 140.892696,250.838944 140.872556,251.000069 C140.811449,251.488927 140.78,252.055001 140.78,252.696 C140.78,258.085978 141.749938,263.628482 143.6967,269.329712 C145.622081,274.96833 148.754853,280.166666 153.108971,284.935461 C157.449057,289.688889 163.086994,293.597397 170.041477,296.65737 C176.967512,299.704825 185.480754,301.24 195.588,301.24 C203.408238,301.24 210.467076,299.988186 216.776271,297.492241 C223.100434,294.990374 228.465138,291.667719 232.884118,287.524926 C237.298091,283.386825 240.668165,278.675599 243.006423,273.380135 C245.342116,268.090476 246.508,262.569672 246.508,256.8 C246.508,248.423577 244.184645,240.941007 239.52633,234.296058 C234.858855,227.638042 227.224905,221.912579 216.584123,217.152226 L197.367723,208.515623 C193.189234,206.658517 189.794363,204.083098 187.211363,200.795643 C184.543793,197.400554 183.22,193.148369 183.22,188.112 C183.22,181.508722 185.682627,175.868512 190.549686,171.315457 C195.416048,166.763054 202.16921,164.512 210.708,164.512 C217.20617,164.512 222.491996,165.584486 226.5602,167.775058 C230.560524,169.929078 233.640236,172.502003 235.774361,175.505586 C237.876078,178.463558 239.251977,181.529848 239.885161,184.695768 C240.258604,186.562981 240.517071,188.208107 240.658931,189.637778 L261.15047,186.010956 C260.961464,182.489734 260.183606,178.606647 258.809342,174.364354 Z M195.372,278.344 C202.999135,278.344 208.919909,276.537662 213.209961,272.973619 C217.430267,269.467519 219.508,264.992401 219.508,259.392 C219.508,256.024991 218.57017,252.823435 216.673928,249.750215 C214.823221,246.750794 211.354668,244.075052 206.216123,241.776226 L186.986539,233.133706 C177.489174,228.830213 170.100381,223.307277 164.849296,216.555881 C159.522129,209.706667 156.868,201.137622 156.868,190.92 C156.868,183.85956 158.300042,177.302313 161.165445,171.269886 C164.018045,165.264414 167.963123,160.041881 172.990239,155.615017 C178.003699,151.20018 183.870949,147.762046 190.579491,145.302247 C197.283674,142.844047 204.428673,141.616 212.004,141.616 C222.066802,141.616 230.520001,143.180028 237.358116,146.336081 C244.1499,149.470751 249.631137,153.375193 253.784149,158.056771 C257.922577,162.721908 260.871215,167.749714 262.614658,173.131646 C264.331633,178.431872 265.196,183.279845 265.196,187.68 L265.196,189.357102 L236.788,194.385067 L236.788,192 C236.788,190.424425 236.515205,188.242063 235.962839,185.480232 C235.444017,182.886123 234.299941,180.336469 232.513639,177.822414 C230.759745,175.35397 228.151514,173.174942 224.6638,171.296942 C221.243967,169.455493 216.593892,168.512 210.708,168.512 C203.11871,168.512 197.343997,170.436904 193.282314,174.236543 C189.221329,178.035529 187.22,182.619217 187.22,188.112 C187.22,192.291677 188.272183,195.671416 190.356637,198.324357 C192.52566,201.084933 195.394727,203.261466 198.999877,204.863774 L218.220732,213.502363 C229.471205,218.53547 237.677096,224.689888 242.80167,231.999942 C247.935404,239.323063 250.508,247.608335 250.508,256.8 C250.508,263.126388 249.225909,269.197468 246.665577,274.995865 C244.10781,280.788456 240.421955,285.941132 235.619882,290.443074 C230.822816,294.940324 225.027631,298.5296 218.247729,301.211759 C211.452858,303.89984 203.895842,305.24 195.588,305.24 C184.959142,305.24 175.90456,303.607207 168.430523,300.31863 C160.984934,297.042571 154.886988,292.815161 150.155029,287.632539 C145.437101,282.465285 142.017939,276.791729 139.9113,270.622288 C137.826042,264.515459 136.78,258.538078 136.78,252.696 C136.78,251.896992 136.820551,251.167079 136.903444,250.503931 C136.964551,250.015073 136.996,249.448999 136.996,248.808 L136.996,247.123319 L166.584849,242.021793 L166.013161,244.880232 C165.8955,245.468539 165.836,246.093289 165.836,246.756 L165.836,249.024 C165.836,252.712269 166.382073,256.330001 167.475558,259.883828 C168.544447,263.357717 170.27707,266.456447 172.68288,269.196398 C175.082697,271.929522 178.127219,274.137636 181.835606,275.823267 C185.516704,277.496493 190.025439,278.344 195.372,278.344 Z M336.852,299.296 C341.655696,299.296 345.724866,297.629883 349.167319,294.252382 C352.597451,290.886969 354.292,286.794474 354.292,281.856 C354.292,278.176834 353.072946,275.019797 350.598562,272.29163 C348.191559,269.637755 344.810646,268.304 340.308,268.304 C337.836461,268.304 335.546222,268.755596 333.4211,269.657164 C331.280755,270.565189 329.407915,271.824512 327.790214,273.442214 C326.165998,275.066429 324.904049,276.910815 323.996315,278.985638 C323.099778,281.034864 322.652,283.209787 322.652,285.528 C322.652,289.192804 323.932759,292.379083 326.543216,295.180549 C329.102981,297.927614 332.492847,299.296 336.852,299.296 Z M336.852,303.296 C331.419104,303.296 326.961049,301.496418 323.616784,297.907451 C320.323212,294.372886 318.652,290.215237 318.652,285.528 C318.652,282.662187 319.212212,279.941159 320.331685,277.382362 C321.439961,274.849162 322.985984,272.589589 324.961786,270.613786 C326.944103,268.63147 329.247221,267.082821 331.8589,265.974836 C334.485802,264.860393 337.307511,264.304 340.308,264.304 C345.885404,264.304 350.352413,266.066214 353.561438,269.60437 C356.703082,273.068234 358.292,277.183124 358.292,281.856 C358.292,287.861581 356.170587,292.984993 351.968681,297.107618 C347.779096,301.218154 342.704357,303.296 336.852,303.296 Z M554.470861,298 L586.024599,148.856 L563.977078,148.856 L550.585078,212.144 L480.400506,212.144 L493.792506,148.856 L471.961139,148.856 L440.407401,298 L462.238315,298 L476.062315,232.552 L546.24657,232.552 L532.42257,298 L554.470861,298 Z M547.342922,208.144 L560.734922,144.856 L590.959401,144.856 L557.713139,302 L527.48943,302 L541.31343,236.552 L479.305685,236.552 L465.481685,302 L435.472599,302 L468.718861,144.856 L498.727494,144.856 L485.335494,208.144 L547.342922,208.144 Z" id="S-.-H"></path>
        </g>
    </g>
</svg>