<svg width="32" height="32" viewBox="0 0 32 32" fill="none" xmlns="http://www.w3.org/2000/svg">
<path fill-rule="evenodd" clip-rule="evenodd" d="M23.0395 14.7899C22.784 13.4449 22.5285 12.3691 22.0161 11.2939C16.896 2.15098 16.896 2.15098 16.896 2.15098C16.6398 1.61342 16.3843 0.805965 16.1281 0C16.1281 0.536813 16.1281 0.536813 16.1281 0.536813C14.8484 2.68928 14.8484 5.37782 16.1281 7.7987C19.9685 15.0591 19.9685 15.0591 19.9685 15.0591C21.2475 17.2108 21.2475 20.1678 19.9685 22.3195C19.7123 22.8578 19.7123 22.8578 19.7123 22.8578C19.7123 22.0511 19.4561 21.2444 18.9444 20.4369C15.3609 13.7141 15.3609 13.7141 15.3609 13.7141C13.0564 9.68052 13.0564 9.68052 13.0564 9.68052C12.5439 8.87381 12.2877 8.06636 12.2877 7.26114C12.0322 7.7987 12.0322 7.7987 12.0322 7.7987C10.7518 9.94967 10.7518 12.639 12.0322 15.0591C16.1281 22.3195 16.1281 22.3195 16.1281 22.3195C17.1523 24.7396 17.1523 27.4289 16.1281 29.5799C15.8719 30.1182 15.8719 30.1182 15.8719 30.1182C15.6164 29.3115 15.3609 28.5048 15.104 27.9664C9.9839 18.8235 9.9839 18.8235 9.9839 18.8235C9.21596 17.4792 8.96045 16.1342 8.96045 14.7899C3.58418 16.1342 0 19.361 0 22.8578C0 27.9665 7.16836 32 16.1281 32C24.8323 32 32 27.9665 32 22.8578C32 19.361 28.4165 16.1342 23.0395 14.7899Z" fill="white"/>
</svg>
